<?xml version="1.0" encoding="UTF-8" ?>
<!DOCTYPE svg PUBLIC "-//W3C//DTD SVG 1.1//EN" "http://www.w3.org/Graphics/SVG/1.1/DTD/svg11.dtd">
<svg width="100pt" height="200pt" viewBox="0 0 100 200" version="1.1" xmlns="http://www.w3.org/2000/svg">
<g id="#ffffffff">
<path fill="#ffffff" opacity="1.00" d=" M 472.59 198.79 C 490.16 196.18 508.78 197.95 524.81 205.95 C 539.40 213.38 551.38 225.85 558.20 240.75 C 565.32 256.04 566.50 273.56 563.91 290.07 C 560.96 308.99 550.01 326.30 534.56 337.50 C 521.22 347.41 504.45 352.02 487.96 352.02 C 469.72 352.42 451.26 346.48 437.05 334.94 C 425.93 326.15 418.62 313.35 414.38 299.98 C 408.72 282.00 408.94 262.11 415.63 244.44 C 422.28 227.33 435.47 212.71 452.15 204.91 C 458.62 201.91 465.53 199.84 472.59 198.79 M 479.53 217.72 C 462.84 219.45 448.35 231.00 441.07 245.82 C 434.69 258.51 433.63 273.30 435.87 287.16 C 438.62 303.20 448.15 318.36 462.43 326.49 C 473.12 332.37 485.90 333.60 497.80 331.56 C 510.51 329.34 521.75 321.44 529.15 311.01 C 540.07 296.61 542.99 277.26 539.21 259.83 C 536.12 245.87 527.36 233.39 515.55 225.42 C 505.04 218.43 491.93 216.14 479.53 217.72 Z" />
<path fill="#ffffff" opacity="1.00" d=" M 287.33 200.01 C 307.66 199.99 328.00 200.00 348.33 200.00 C 348.33 206.22 348.33 212.44 348.33 218.66 C 342.22 218.67 336.11 218.66 330.00 218.67 C 330.00 256.22 330.00 293.78 330.00 331.33 C 345.44 331.33 360.89 331.34 376.33 331.33 C 376.34 314.33 376.33 297.33 376.34 280.34 C 383.22 280.33 390.10 280.34 396.99 280.33 C 397.01 303.44 397.00 326.56 396.99 349.67 C 360.44 349.66 323.89 349.67 287.34 349.66 C 287.33 343.55 287.33 337.44 287.33 331.34 C 293.89 331.33 300.44 331.34 307.00 331.33 C 307.00 293.78 307.00 256.22 307.00 218.67 C 300.44 218.66 293.89 218.67 287.34 218.67 C 287.33 212.45 287.34 206.23 287.33 200.01 Z" />
<path fill="#ffffff" opacity="1.00" d=" M 634.33 200.01 C 653.22 199.98 672.12 200.02 691.01 199.98 C 704.98 200.57 719.17 200.11 732.87 203.45 C 748.44 207.76 762.66 217.91 770.60 232.15 C 781.17 249.85 782.36 271.47 779.30 291.42 C 776.59 307.62 769.72 324.11 756.53 334.53 C 742.68 344.97 724.97 347.92 708.07 349.00 C 683.52 350.30 658.91 349.40 634.34 349.67 C 634.33 343.55 634.33 337.44 634.34 331.34 C 641.11 331.33 647.88 331.33 654.66 331.34 C 654.67 293.78 654.68 256.22 654.65 218.66 C 647.88 218.67 641.11 218.67 634.33 218.66 C 634.33 212.44 634.34 206.23 634.33 200.01 M 677.00 218.67 C 677.00 256.22 677.00 293.78 677.00 331.33 C 685.77 331.48 694.52 331.08 703.28 330.80 C 716.11 330.17 729.55 328.01 740.09 320.11 C 749.46 312.74 754.38 301.11 756.56 289.66 C 758.93 275.15 758.61 259.74 752.66 246.09 C 747.83 235.19 739.00 225.23 727.11 222.18 C 710.78 217.88 693.73 218.73 677.00 218.67 Z" />
<path fill="#ffffff" opacity="1.00" d=" M 798.33 200.01 C 839.78 199.99 881.22 199.99 922.67 200.01 C 922.66 214.89 922.67 229.78 922.67 244.66 C 916.55 244.67 910.44 244.67 904.34 244.66 C 904.33 236.00 904.34 227.33 904.33 218.67 C 882.89 218.66 861.44 218.67 840.00 218.67 C 840.00 233.56 840.00 248.44 840.00 263.33 C 858.56 263.34 877.11 263.33 895.66 263.34 C 895.67 269.55 895.66 275.77 895.67 281.99 C 877.11 282.01 858.56 281.99 840.00 282.00 C 840.00 298.44 840.00 314.89 840.00 331.33 C 861.44 331.33 882.89 331.34 904.33 331.33 C 904.33 322.22 904.34 313.12 904.33 304.01 C 910.44 303.99 916.55 303.99 922.67 304.01 C 922.66 319.23 922.67 334.45 922.66 349.67 C 881.22 349.67 839.78 349.67 798.33 349.66 C 798.33 343.55 798.33 337.44 798.34 331.33 C 804.77 331.33 811.21 331.33 817.66 331.34 C 817.67 293.78 817.68 256.22 817.65 218.66 C 811.21 218.67 804.77 218.67 798.33 218.66 C 798.33 212.45 798.34 206.23 798.33 200.01 Z" />
<path fill="#ffffff" opacity="1.00" d=" M 106.71 368.78 C 111.50 361.86 119.47 356.72 128.04 356.62 C 134.55 356.24 140.74 358.82 146.55 361.44 C 156.40 365.71 165.14 372.21 175.16 376.11 C 178.75 377.71 183.24 377.04 185.90 374.03 C 190.07 369.51 190.40 363.08 191.06 357.30 C 197.17 357.37 203.28 357.31 209.39 357.34 C 208.74 368.87 207.83 381.26 201.05 391.04 C 195.63 398.65 186.49 404.08 176.93 402.99 C 160.30 401.58 147.55 389.56 132.57 383.59 C 128.69 381.68 123.24 381.96 120.71 385.88 C 118.14 390.35 118.42 395.71 117.93 400.68 C 111.72 400.65 105.52 400.68 99.31 400.66 C 99.60 389.76 100.56 378.14 106.71 368.78 Z" />
<path fill="#ffffff" opacity="1.00" d=" M 33.66 420.34 C 60.00 420.32 86.33 420.33 112.67 420.34 C 146.36 480.29 179.97 540.28 213.66 600.24 C 213.67 549.71 213.67 499.19 213.66 448.66 C 202.77 448.68 191.89 448.66 181.01 448.67 C 180.99 439.22 181.00 429.78 181.01 420.33 C 212.56 420.34 244.11 420.33 275.66 420.33 C 275.67 429.78 275.67 439.22 275.66 448.66 C 264.33 448.67 253.00 448.66 241.67 448.67 C 241.66 517.00 241.67 585.33 241.67 653.66 C 229.80 653.67 217.94 653.66 206.08 653.67 C 169.00 587.72 132.01 521.71 94.99 455.72 C 95.02 511.37 94.98 567.02 95.01 622.67 C 106.01 622.66 117.00 622.67 128.00 622.67 C 128.00 632.11 128.00 641.55 128.00 651.00 C 96.56 651.00 65.11 651.00 33.67 651.00 C 33.67 641.55 33.66 632.11 33.67 622.67 C 44.67 622.66 55.67 622.67 66.66 622.67 C 66.66 564.66 66.68 506.66 66.66 448.66 C 55.66 448.66 44.66 448.68 33.66 448.65 C 33.67 439.22 33.67 429.78 33.66 420.34 Z" />
<path fill="#ffffff" opacity="1.00" d=" M 337.01 420.33 C 376.56 420.34 416.11 420.33 455.66 420.34 C 455.67 428.89 455.66 437.44 455.67 445.99 C 445.87 446.02 436.06 445.98 426.26 446.01 C 447.91 504.89 469.59 563.75 491.22 622.63 C 499.81 622.71 508.40 622.64 517.00 622.67 C 517.00 632.11 517.00 641.55 517.00 651.00 C 486.89 651.00 456.78 651.00 426.67 651.00 C 426.67 641.55 426.66 632.11 426.67 622.67 C 436.29 622.60 445.92 622.80 455.55 622.57 C 449.87 604.93 444.11 587.31 438.51 569.64 C 410.42 569.73 382.32 569.59 354.22 569.72 C 348.72 587.45 342.38 604.93 336.85 622.66 C 346.23 622.68 355.61 622.66 365.00 622.67 C 365.00 632.11 365.00 641.55 365.00 651.00 C 334.67 651.00 304.33 651.00 274.00 651.00 C 274.00 641.55 274.00 632.11 274.00 622.67 C 283.31 622.70 292.61 622.60 301.92 622.72 C 323.22 563.87 344.20 504.90 365.41 446.01 C 355.94 445.99 346.47 446.01 337.00 446.00 C 337.00 437.44 336.99 428.88 337.01 420.33 M 395.27 446.00 C 384.72 478.27 373.90 510.45 363.26 542.68 C 385.44 542.63 407.62 542.71 429.81 542.64 C 419.40 510.44 409.11 478.20 398.63 446.02 C 397.51 446.01 396.38 446.00 395.27 446.00 Z" />
<path fill="#ffffff" opacity="1.00" d=" M 531.66 420.34 C 563.10 420.32 594.55 420.35 625.99 420.33 C 626.00 429.77 626.00 439.22 625.99 448.67 C 616.55 448.66 607.11 448.66 597.67 448.67 C 597.66 506.67 597.67 564.66 597.66 622.66 C 621.33 622.68 645.00 622.66 668.66 622.66 C 668.67 596.44 668.66 570.22 668.67 544.00 C 679.44 544.00 690.22 544.00 701.00 544.00 C 701.00 579.67 701.00 615.33 701.00 651.00 C 644.56 651.00 588.11 651.00 531.67 651.00 C 531.67 641.55 531.66 632.11 531.67 622.67 C 541.67 622.66 551.66 622.67 561.66 622.67 C 561.66 564.66 561.68 506.66 561.66 448.66 C 551.66 448.66 541.66 448.68 531.66 448.66 C 531.67 439.22 531.67 429.78 531.66 420.34 Z" />
<path fill="#ffffff" opacity="1.00" d=" M 716.66 420.34 C 746.46 420.32 776.25 420.34 806.05 420.34 C 815.19 420.19 824.32 420.91 833.43 421.72 C 843.97 423.00 854.89 424.47 864.27 429.81 C 874.37 435.40 882.01 444.57 887.48 454.59 C 895.28 469.27 897.31 486.47 895.35 502.83 C 893.45 518.10 886.70 532.85 875.92 543.88 C 863.61 555.45 846.46 560.27 829.94 561.38 C 813.44 562.67 796.89 562.70 780.34 562.66 C 780.32 582.66 780.34 602.66 780.33 622.66 C 790.33 622.67 800.33 622.66 810.33 622.67 C 810.34 632.11 810.33 641.55 810.33 651.00 C 779.11 651.00 747.89 651.00 716.67 651.00 C 716.67 641.55 716.66 632.11 716.67 622.67 C 726.22 622.65 735.78 622.68 745.34 622.65 C 745.32 564.66 745.34 506.67 745.33 448.67 C 735.77 448.65 726.22 448.68 716.66 448.66 C 716.67 439.22 716.67 429.78 716.66 420.34 M 780.33 534.99 C 798.63 534.88 817.31 536.02 835.16 531.10 C 843.58 528.73 851.72 523.75 855.78 515.74 C 860.78 505.96 861.59 494.51 860.58 483.74 C 859.35 472.25 853.55 460.72 843.44 454.63 C 836.76 450.63 828.75 450.18 821.20 449.42 C 807.59 448.74 793.97 448.59 780.34 448.66 C 780.32 477.44 780.35 506.21 780.33 534.99 Z" />
<path fill="#ffffff" opacity="1.00" d=" M 939.66 420.35 C 979.22 420.32 1018.78 420.33 1058.34 420.34 C 1058.32 428.89 1058.33 437.45 1058.33 446.00 C 1048.50 446.00 1038.67 446.00 1028.84 446.00 C 1050.38 504.93 1072.09 563.80 1093.80 622.68 C 1102.41 622.65 1111.03 622.68 1119.66 622.66 C 1119.68 632.10 1119.65 641.55 1119.67 650.99 C 1089.56 651.01 1059.44 651.00 1029.33 650.99 C 1029.34 641.55 1029.31 632.10 1029.34 622.66 C 1038.91 622.69 1048.48 622.61 1058.04 622.70 C 1052.41 605.00 1046.70 587.33 1040.94 569.67 C 1012.90 569.67 984.86 569.67 956.82 569.66 C 950.90 587.32 945.24 605.05 939.25 622.68 C 948.72 622.64 958.19 622.68 967.66 622.66 C 967.68 632.10 967.65 641.55 967.67 650.99 C 937.34 651.01 907.00 651.00 876.67 651.00 C 876.67 641.55 876.66 632.11 876.67 622.67 C 885.95 622.67 895.23 622.65 904.51 622.68 C 925.61 563.78 946.86 504.94 967.84 446.00 C 958.45 445.99 949.06 446.00 939.67 446.00 C 939.66 437.45 939.67 428.90 939.66 420.35 M 997.83 446.00 C 987.18 478.22 976.38 510.40 965.85 542.65 C 988.00 542.66 1010.16 542.71 1032.31 542.63 C 1021.92 510.42 1011.58 478.20 1001.17 446.00 C 1000.33 446.00 998.67 446.00 997.83 446.00 Z" />
<path fill="#ffffff" opacity="1.00" d=" M 0.00 449.94 C 0.86 468.20 14.99 484.78 33.00 488.16 C 33.00 519.17 33.00 550.17 33.00 581.18 C 14.92 584.56 0.72 601.27 0.00 619.61 L 0.00 449.94 Z" />
</g>
<g id="#000000ff">
<path fill="#000000" opacity="1.00" d=" M 327.67 0.00 L 823.33 0.00 C 823.33 3.44 823.33 6.89 823.33 10.33 C 658.11 10.34 492.89 10.34 327.67 10.33 C 327.66 6.89 327.66 3.44 327.67 0.00 Z" />
<path fill="#000000" opacity="1.00" d=" M 327.67 111.00 C 492.89 111.00 658.11 111.00 823.33 111.00 C 823.33 114.44 823.33 117.89 823.33 121.33 C 658.11 121.34 492.89 121.33 327.67 121.33 C 327.66 117.89 327.66 114.44 327.67 111.00 Z" />
<path fill="#000000" opacity="1.00" d=" M 419.86 171.88 C 439.03 160.27 461.60 154.70 483.94 154.99 C 508.22 154.67 532.82 161.16 553.07 174.75 C 565.41 182.93 576.02 193.56 584.65 205.57 C 584.09 196.14 586.18 186.47 591.33 178.48 C 599.04 165.95 613.21 157.56 627.98 157.32 C 650.33 157.34 672.67 157.34 695.02 157.32 C 716.94 157.76 739.84 159.53 759.38 170.44 C 767.77 162.90 778.44 157.45 789.91 157.33 C 831.96 157.33 874.01 157.34 916.06 157.33 C 933.98 157.72 950.82 170.16 956.67 187.07 C 959.58 194.70 959.43 202.98 959.33 211.02 C 959.31 223.03 959.37 235.03 959.31 247.04 C 959.15 257.45 955.25 267.73 948.42 275.60 C 955.41 283.71 959.30 294.30 959.33 305.00 C 959.34 320.01 959.33 335.03 959.33 350.04 C 959.33 360.16 955.70 370.08 949.47 378.01 C 982.32 377.98 1015.18 378.01 1048.04 378.00 C 1056.40 378.01 1064.80 380.46 1071.64 385.31 C 1082.25 392.59 1089.26 405.04 1089.35 417.97 C 1089.33 427.31 1089.31 436.64 1089.36 445.98 C 1089.36 457.83 1083.52 469.34 1074.42 476.83 C 1087.12 511.33 1099.64 545.92 1112.59 580.32 C 1123.72 581.37 1134.42 586.74 1141.45 595.51 C 1146.81 601.73 1149.47 609.68 1151.00 617.62 L 1151.00 653.86 C 1149.55 661.21 1147.35 668.60 1142.66 674.59 C 1135.18 684.90 1122.74 691.25 1110.00 691.33 C 1081.35 691.35 1052.69 691.31 1024.04 691.34 C 1017.17 691.49 1010.12 690.98 1003.73 688.25 C 997.85 685.92 992.74 681.98 988.51 677.32 C 980.89 686.04 969.59 691.27 958.00 691.31 C 929.35 691.37 900.69 691.31 872.04 691.34 C 864.66 691.49 857.03 691.04 850.25 687.85 C 843.53 685.08 837.98 680.16 833.50 674.54 C 827.42 682.47 818.66 688.41 808.81 690.42 C 802.27 691.71 795.58 691.26 788.96 691.33 C 670.64 691.29 552.32 691.37 433.99 691.31 C 422.38 691.26 411.13 685.98 403.45 677.32 C 396.04 686.20 384.53 691.18 373.04 691.31 C 342.70 691.37 312.35 691.30 282.01 691.35 C 277.37 691.32 272.74 690.54 268.32 689.10 C 262.36 692.12 255.69 693.71 249.00 693.67 C 237.00 693.66 225.01 693.66 213.01 693.67 C 202.37 693.64 191.75 689.30 184.37 681.59 C 179.80 677.07 177.00 671.21 173.82 665.71 C 167.70 680.30 152.99 690.97 137.04 691.31 C 108.71 691.37 80.37 691.32 52.03 691.33 C 44.28 691.27 36.32 691.90 28.84 689.42 C 12.66 684.48 0.69 668.86 0.00 651.96 L 0.00 619.61 C 0.72 601.27 14.92 584.56 33.00 581.18 C 33.00 550.17 33.00 519.17 33.00 488.16 C 14.99 484.78 0.86 468.20 0.00 449.94 L 0.00 417.62 C 0.57 402.98 9.44 389.03 22.58 382.51 C 28.56 379.38 35.33 377.95 42.06 377.99 C 50.57 377.99 59.08 378.03 67.59 377.97 C 69.40 366.78 73.14 355.81 79.28 346.23 C 90.18 329.65 108.04 317.35 127.93 314.93 C 143.49 312.57 159.16 317.10 173.09 323.81 C 177.32 320.60 182.09 318.08 187.19 316.56 C 196.25 313.94 205.76 315.37 215.04 314.98 C 224.81 314.54 234.69 317.47 242.37 323.59 C 244.51 312.03 251.38 301.54 261.00 294.80 C 261.00 282.30 261.00 269.79 261.00 257.29 C 253.00 251.58 246.75 243.39 243.80 233.99 C 240.47 224.32 242.03 213.98 241.65 203.97 C 241.28 192.94 244.96 181.80 252.14 173.37 C 260.58 163.16 273.78 157.05 287.03 157.31 C 307.37 157.35 327.70 157.33 348.04 157.32 C 357.23 157.51 366.36 160.65 373.69 166.21 C 383.33 173.29 389.78 184.43 391.37 196.27 C 399.58 186.78 409.11 178.38 419.86 171.88 M 472.59 198.79 C 465.53 199.84 458.62 201.91 452.15 204.91 C 435.47 212.71 422.28 227.33 415.63 244.44 C 408.94 262.11 408.72 282.00 414.38 299.98 C 418.62 313.35 425.93 326.15 437.05 334.94 C 451.26 346.48 469.72 352.42 487.96 352.02 C 504.45 352.02 521.22 347.41 534.56 337.50 C 550.01 326.30 560.96 308.99 563.91 290.07 C 566.50 273.56 565.32 256.04 558.20 240.75 C 551.38 225.85 539.40 213.38 524.81 205.95 C 508.78 197.95 490.16 196.18 472.59 198.79 M 287.33 200.01 C 287.34 206.23 287.33 212.45 287.34 218.67 C 293.89 218.67 300.44 218.66 307.00 218.67 C 307.00 256.22 307.00 293.78 307.00 331.33 C 300.44 331.34 293.89 331.33 287.33 331.34 C 287.33 337.44 287.33 343.55 287.34 349.66 C 323.89 349.67 360.44 349.66 396.99 349.67 C 397.00 326.56 397.01 303.44 396.99 280.33 C 390.10 280.34 383.22 280.33 376.34 280.34 C 376.33 297.33 376.34 314.33 376.33 331.33 C 360.89 331.34 345.44 331.33 330.00 331.33 C 330.00 293.78 330.00 256.22 330.00 218.67 C 336.11 218.66 342.22 218.67 348.33 218.66 C 348.33 212.44 348.33 206.22 348.33 200.00 C 328.00 200.00 307.66 199.99 287.33 200.01 M 634.33 200.01 C 634.34 206.23 634.33 212.44 634.33 218.66 C 641.11 218.67 647.88 218.67 654.65 218.66 C 654.68 256.22 654.67 293.78 654.66 331.34 C 647.88 331.33 641.11 331.33 634.34 331.34 C 634.33 337.44 634.33 343.55 634.34 349.67 C 658.91 349.40 683.52 350.30 708.07 349.00 C 724.97 347.92 742.68 344.97 756.53 334.53 C 769.72 324.11 776.59 307.62 779.30 291.42 C 782.36 271.47 781.17 249.85 770.60 232.15 C 762.66 217.91 748.44 207.76 732.87 203.45 C 719.17 200.11 704.98 200.57 691.01 199.98 C 672.12 200.02 653.22 199.98 634.33 200.01 M 798.33 200.01 C 798.34 206.23 798.33 212.45 798.33 218.66 C 804.77 218.67 811.21 218.67 817.65 218.66 C 817.68 256.22 817.67 293.78 817.66 331.34 C 811.21 331.33 804.77 331.33 798.34 331.33 C 798.33 337.44 798.33 343.55 798.33 349.66 C 839.78 349.67 881.22 349.67 922.66 349.67 C 922.67 334.45 922.66 319.23 922.67 304.01 C 916.55 303.99 910.44 303.99 904.33 304.01 C 904.34 313.12 904.33 322.22 904.33 331.33 C 882.89 331.34 861.44 331.33 840.00 331.33 C 840.00 314.89 840.00 298.44 840.00 282.00 C 858.56 281.99 877.11 282.01 895.67 281.99 C 895.66 275.77 895.67 269.55 895.66 263.34 C 877.11 263.33 858.56 263.34 840.00 263.33 C 840.00 248.44 840.00 233.56 840.00 218.67 C 861.44 218.67 882.89 218.66 904.33 218.67 C 904.34 227.33 904.33 236.00 904.34 244.66 C 910.44 244.67 916.55 244.67 922.67 244.66 C 922.67 229.78 922.66 214.89 922.67 200.01 C 881.22 199.99 839.78 199.99 798.33 200.01 M 106.71 368.78 C 100.56 378.14 99.60 389.76 99.31 400.66 C 105.52 400.68 111.72 400.65 117.93 400.68 C 118.42 395.71 118.14 390.35 120.71 385.88 C 123.24 381.96 128.69 381.68 132.57 383.59 C 147.55 389.56 160.30 401.58 176.93 402.99 C 186.49 404.08 195.63 398.65 201.05 391.04 C 207.83 381.26 208.74 368.87 209.39 357.34 C 203.28 357.31 197.17 357.37 191.06 357.30 C 190.40 363.08 190.07 369.51 185.90 374.03 C 183.24 377.04 178.75 377.71 175.16 376.11 C 165.14 372.21 156.40 365.71 146.55 361.44 C 140.74 358.82 134.55 356.24 128.04 356.62 C 119.47 356.72 111.50 361.86 106.71 368.78 M 33.66 420.34 C 33.67 429.78 33.67 439.22 33.66 448.65 C 44.66 448.68 55.66 448.66 66.66 448.66 C 66.68 506.66 66.66 564.66 66.66 622.67 C 55.67 622.67 44.67 622.66 33.67 622.67 C 33.66 632.11 33.67 641.55 33.67 651.00 C 65.11 651.00 96.56 651.00 128.00 651.00 C 128.00 641.55 128.00 632.11 128.00 622.67 C 117.00 622.67 106.01 622.66 95.01 622.67 C 94.98 567.02 95.02 511.37 94.99 455.72 C 132.01 521.71 169.00 587.72 206.08 653.67 C 217.94 653.66 229.80 653.67 241.67 653.66 C 241.67 585.33 241.66 517.00 241.67 448.67 C 253.00 448.66 264.33 448.67 275.66 448.66 C 275.67 439.22 275.67 429.78 275.66 420.33 C 244.11 420.33 212.56 420.34 181.01 420.33 C 181.00 429.78 180.99 439.22 181.01 448.67 C 191.89 448.66 202.77 448.68 213.66 448.66 C 213.67 499.19 213.67 549.71 213.66 600.24 C 179.97 540.28 146.36 480.29 112.67 420.34 C 86.33 420.33 60.00 420.32 33.66 420.34 M 337.01 420.33 C 336.99 428.88 337.00 437.44 337.00 446.00 C 346.47 446.01 355.94 445.99 365.41 446.01 C 344.20 504.90 323.22 563.87 301.92 622.72 C 292.61 622.60 283.31 622.70 274.00 622.67 C 274.00 632.11 274.00 641.55 274.00 651.00 C 304.33 651.00 334.67 651.00 365.00 651.00 C 365.00 641.55 365.00 632.11 365.00 622.67 C 355.61 622.66 346.23 622.68 336.85 622.66 C 342.38 604.93 348.72 587.45 354.22 569.72 C 382.32 569.59 410.42 569.73 438.51 569.64 C 444.11 587.31 449.87 604.93 455.55 622.57 C 445.92 622.80 436.29 622.60 426.67 622.67 C 426.66 632.11 426.67 641.55 426.67 651.00 C 456.78 651.00 486.89 651.00 517.00 651.00 C 517.00 641.55 517.00 632.11 517.00 622.67 C 508.40 622.64 499.81 622.71 491.22 622.63 C 469.59 563.75 447.91 504.89 426.26 446.01 C 436.06 445.98 445.87 446.02 455.67 445.99 C 455.66 437.44 455.67 428.89 455.66 420.34 C 416.11 420.33 376.56 420.34 337.01 420.33 M 531.66 420.34 C 531.67 429.78 531.67 439.22 531.66 448.66 C 541.66 448.68 551.66 448.66 561.66 448.66 C 561.68 506.66 561.66 564.66 561.66 622.67 C 551.66 622.67 541.67 622.66 531.67 622.67 C 531.66 632.11 531.67 641.55 531.67 651.00 C 588.11 651.00 644.56 651.00 701.00 651.00 C 701.00 615.33 701.00 579.67 701.00 544.00 C 690.22 544.00 679.44 544.00 668.67 544.00 C 668.66 570.22 668.67 596.44 668.66 622.66 C 645.00 622.66 621.33 622.68 597.66 622.66 C 597.67 564.66 597.66 506.67 597.67 448.67 C 607.11 448.66 616.55 448.66 625.99 448.67 C 626.00 439.22 626.00 429.77 625.99 420.33 C 594.55 420.35 563.10 420.32 531.66 420.34 M 716.66 420.34 C 716.67 429.78 716.67 439.22 716.66 448.66 C 726.22 448.68 735.77 448.65 745.33 448.67 C 745.34 506.67 745.32 564.66 745.34 622.65 C 735.78 622.68 726.22 622.65 716.67 622.67 C 716.66 632.11 716.67 641.55 716.67 651.00 C 747.89 651.00 779.11 651.00 810.33 651.00 C 810.33 641.55 810.34 632.11 810.33 622.67 C 800.33 622.66 790.33 622.67 780.33 622.66 C 780.34 602.66 780.32 582.66 780.34 562.66 C 796.89 562.70 813.44 562.67 829.94 561.38 C 846.46 560.27 863.61 555.45 875.92 543.88 C 886.70 532.85 893.45 518.10 895.35 502.83 C 897.31 486.47 895.28 469.27 887.48 454.59 C 882.01 444.57 874.37 435.40 864.27 429.81 C 854.89 424.47 843.97 423.00 833.43 421.72 C 824.32 420.91 815.19 420.19 806.05 420.34 C 776.25 420.34 746.46 420.32 716.66 420.34 M 939.66 420.35 C 939.67 428.90 939.66 437.45 939.67 446.00 C 949.06 446.00 958.45 445.99 967.84 446.00 C 946.86 504.94 925.61 563.78 904.51 622.68 C 895.23 622.65 885.95 622.67 876.67 622.67 C 876.66 632.11 876.67 641.55 876.67 651.00 C 907.00 651.00 937.34 651.01 967.67 650.99 C 967.65 641.55 967.68 632.10 967.66 622.66 C 958.19 622.68 948.72 622.64 939.25 622.68 C 945.24 605.05 950.90 587.32 956.82 569.66 C 984.86 569.67 1012.90 569.67 1040.94 569.67 C 1046.70 587.33 1052.41 605.00 1058.04 622.70 C 1048.48 622.61 1038.91 622.69 1029.34 622.66 C 1029.31 632.10 1029.34 641.55 1029.33 650.99 C 1059.44 651.00 1089.56 651.01 1119.67 650.99 C 1119.65 641.55 1119.68 632.10 1119.66 622.66 C 1111.03 622.68 1102.41 622.65 1093.80 622.68 C 1072.09 563.80 1050.38 504.93 1028.84 446.00 C 1038.67 446.00 1048.50 446.00 1058.33 446.00 C 1058.33 437.45 1058.32 428.89 1058.34 420.34 C 1018.78 420.33 979.22 420.32 939.66 420.35 Z" />
<path fill="#000000" opacity="1.00" d=" M 479.53 217.72 C 491.93 216.14 505.04 218.43 515.55 225.42 C 527.36 233.39 536.12 245.87 539.21 259.83 C 542.99 277.26 540.07 296.61 529.15 311.01 C 521.75 321.44 510.51 329.34 497.80 331.56 C 485.90 333.60 473.12 332.37 462.43 326.49 C 448.15 318.36 438.62 303.20 435.87 287.16 C 433.63 273.30 434.69 258.51 441.07 245.82 C 448.35 231.00 462.84 219.45 479.53 217.72 Z" />
<path fill="#000000" opacity="1.00" d=" M 677.00 218.67 C 693.73 218.73 710.78 217.88 727.11 222.18 C 739.00 225.23 747.83 235.19 752.66 246.09 C 758.61 259.74 758.93 275.15 756.56 289.66 C 754.38 301.11 749.46 312.74 740.09 320.11 C 729.55 328.01 716.11 330.17 703.28 330.80 C 694.52 331.08 685.77 331.48 677.00 331.33 C 677.00 293.78 677.00 256.22 677.00 218.67 Z" />
<path fill="#000000" opacity="1.00" d=" M 395.27 446.00 C 396.38 446.00 397.51 446.01 398.63 446.02 C 409.11 478.20 419.40 510.44 429.81 542.64 C 407.62 542.71 385.44 542.63 363.26 542.68 C 373.90 510.45 384.72 478.27 395.27 446.00 Z" />
<path fill="#000000" opacity="1.00" d=" M 997.83 446.00 C 998.67 446.00 1000.33 446.00 1001.17 446.00 C 1011.58 478.20 1021.92 510.42 1032.31 542.63 C 1010.16 542.71 988.00 542.66 965.85 542.65 C 976.38 510.40 987.18 478.22 997.83 446.00 Z" />
<path fill="#000000" opacity="1.00" d=" M 780.33 534.99 C 780.35 506.21 780.32 477.44 780.34 448.66 C 793.97 448.59 807.59 448.74 821.20 449.42 C 828.75 450.18 836.76 450.63 843.44 454.63 C 853.55 460.72 859.35 472.25 860.58 483.74 C 861.59 494.51 860.78 505.96 855.78 515.74 C 851.72 523.75 843.58 528.73 835.16 531.10 C 817.31 536.02 798.63 534.88 780.33 534.99 Z" />
</g>
<g id="#fe0101ff">
<path fill="#fe0101" opacity="1.00" d=" M 710.68 25.82 C 719.05 24.13 728.04 24.69 735.90 28.18 C 746.09 32.87 753.78 42.73 755.54 53.85 C 756.57 60.83 756.23 68.17 753.67 74.81 C 749.61 85.32 740.14 93.58 729.13 96.07 C 719.63 98.14 709.23 97.24 700.77 92.19 C 687.18 84.81 681.53 67.48 684.40 52.87 C 686.76 39.71 697.49 28.42 710.68 25.82 M 711.50 35.72 C 708.78 36.73 706.19 38.16 704.04 40.12 C 692.72 50.35 692.74 70.08 703.12 80.95 C 712.19 90.36 729.36 89.68 737.58 79.48 C 747.19 68.59 746.58 49.98 735.47 40.34 C 729.14 34.48 719.54 33.08 711.50 35.72 Z" />
<path fill="#fe0101" opacity="1.00" d=" M 327.61 26.13 C 333.06 25.81 338.53 26.03 344.00 25.97 C 352.03 26.03 360.20 25.58 368.10 27.35 C 375.98 29.16 381.13 37.06 381.82 44.78 C 382.87 53.06 379.49 62.75 371.59 66.53 C 363.94 70.09 355.23 69.15 347.04 69.35 C 347.06 75.24 347.02 81.13 347.06 87.02 C 350.01 87.06 352.97 87.05 355.93 86.95 C 356.03 89.95 356.05 92.95 356.03 95.95 C 346.58 96.08 337.13 96.04 327.68 95.97 C 327.66 93.02 327.66 90.07 327.62 87.11 C 330.53 86.95 333.44 86.92 336.35 86.95 C 336.35 69.65 336.36 52.35 336.35 35.05 C 333.44 35.08 330.54 35.04 327.63 34.91 C 327.67 31.98 327.67 29.05 327.61 26.13 M 347.07 34.96 C 347.00 43.52 347.08 52.09 347.04 60.65 C 353.44 60.55 360.30 61.09 366.23 58.23 C 370.27 56.08 371.03 51.08 371.04 46.94 C 370.91 42.47 368.69 37.30 364.02 36.03 C 358.48 34.72 352.72 35.03 347.07 34.96 Z" />
<path fill="#fe0101" opacity="1.00" d=" M 392.36 25.97 C 404.45 25.96 416.55 25.97 428.65 25.97 C 428.67 28.76 428.67 31.55 428.66 34.34 C 425.72 34.34 422.78 34.33 419.85 34.36 C 426.29 51.93 432.74 69.50 439.24 87.06 C 441.79 87.04 444.36 87.00 446.92 86.95 C 446.94 89.94 446.97 92.94 447.05 95.93 C 437.81 96.10 428.57 96.04 419.33 95.97 C 419.33 92.97 419.33 89.98 419.35 86.98 C 422.23 87.01 425.12 87.04 428.01 87.05 C 426.31 81.81 424.77 76.52 422.91 71.34 C 414.64 71.33 406.36 71.35 398.09 71.33 C 396.31 76.55 394.54 81.77 392.87 87.03 C 395.69 87.04 398.52 87.04 401.35 87.08 C 401.34 90.06 401.34 93.04 401.32 96.02 C 391.99 95.99 382.66 96.08 373.32 95.97 C 373.33 92.99 373.33 90.01 373.33 87.03 C 376.20 87.04 379.08 87.02 381.96 86.95 C 388.23 69.42 394.49 51.89 400.83 34.38 C 398.00 34.33 395.17 34.33 392.35 34.34 C 392.33 31.55 392.33 28.76 392.36 25.97 M 410.61 33.89 C 407.00 43.46 404.09 53.28 400.73 62.94 C 407.23 62.92 413.74 63.03 420.24 62.96 C 417.02 53.28 414.36 43.36 410.61 33.89 Z" />
<path fill="#fe0101" opacity="1.00" d=" M 454.64 34.92 C 454.65 31.94 454.66 28.95 454.69 25.97 C 465.11 26.00 475.54 25.91 485.96 26.01 C 491.41 26.44 497.40 26.36 502.08 29.60 C 511.68 35.83 512.20 52.16 502.64 58.66 C 500.46 60.28 497.85 61.17 495.27 61.89 C 499.24 70.26 503.35 78.55 507.38 86.89 C 510.22 87.08 513.07 87.08 515.93 86.95 C 516.05 89.97 516.06 93.00 515.95 96.02 C 510.95 95.94 505.95 96.18 500.96 95.92 C 499.93 95.23 499.69 93.86 499.07 92.86 C 494.22 83.05 489.60 73.11 484.66 63.34 C 481.55 63.33 478.44 63.34 475.34 63.34 C 475.33 71.22 475.35 79.09 475.33 86.97 C 478.33 87.07 481.32 87.04 484.32 86.95 C 484.34 89.95 484.34 92.95 484.34 95.96 C 474.44 96.05 464.53 96.10 454.63 95.92 C 454.67 92.97 454.67 90.02 454.63 87.08 C 457.87 87.00 461.10 87.03 464.34 87.05 C 464.36 69.68 464.37 52.32 464.34 34.95 C 461.10 34.97 457.87 35.00 454.64 34.92 M 475.33 35.04 C 475.35 41.48 475.32 47.91 475.35 54.34 C 481.31 54.05 487.49 55.20 493.26 53.20 C 500.17 50.27 500.10 38.48 492.93 35.90 C 487.13 34.81 481.20 34.85 475.33 35.04 Z" />
<path fill="#fe0101" opacity="1.00" d=" M 543.06 25.97 C 555.15 25.97 567.24 25.96 579.33 25.97 C 579.34 28.76 579.34 31.55 579.33 34.33 C 576.39 34.33 573.45 34.34 570.51 34.37 C 576.89 51.93 583.42 69.42 589.81 86.97 C 592.42 87.05 595.05 87.06 597.67 87.05 C 597.66 90.02 597.67 93.00 597.68 95.97 C 588.46 96.06 579.25 95.99 570.05 96.02 C 569.95 93.04 569.94 90.05 569.97 87.06 C 572.88 87.04 575.79 87.04 578.71 87.04 C 576.96 81.83 575.33 76.58 573.61 71.36 C 565.28 71.32 556.94 71.35 548.60 71.34 C 546.87 76.53 545.34 81.79 543.50 86.94 C 546.30 87.06 549.11 87.06 551.93 86.95 C 552.05 89.98 552.06 93.00 551.95 96.02 C 542.65 96.02 533.35 96.03 524.05 96.02 C 523.95 93.04 523.94 90.05 523.97 87.06 C 526.86 86.96 529.75 86.94 532.64 86.92 C 538.82 69.37 545.22 51.89 551.43 34.35 C 548.60 34.34 545.78 34.34 542.96 34.32 C 542.92 31.54 542.94 28.75 543.06 25.97 M 561.20 33.76 C 557.82 43.46 554.70 53.24 551.39 62.96 C 557.89 63.04 564.40 62.85 570.90 63.04 C 567.67 53.29 564.99 43.30 561.20 33.76 Z" />
<path fill="#fe0101" opacity="1.00" d=" M 605.61 26.13 C 618.78 25.97 632.00 25.57 645.15 26.52 C 654.81 27.06 664.27 32.31 669.20 40.74 C 674.71 49.73 675.05 60.91 673.05 71.01 C 671.42 78.47 667.61 85.92 661.01 90.11 C 656.14 93.17 650.43 94.66 644.76 95.32 C 631.76 96.53 618.67 95.94 605.63 95.92 C 605.67 92.99 605.67 90.06 605.61 87.13 C 608.71 86.97 611.82 87.02 614.93 87.05 C 615.13 69.69 615.02 52.31 614.93 34.95 C 611.83 34.98 608.73 35.00 605.63 34.92 C 605.67 31.99 605.67 29.06 605.61 26.13 M 625.96 35.07 C 626.05 52.36 626.08 69.65 625.96 86.93 C 631.61 87.27 637.27 86.91 642.88 86.31 C 648.57 85.59 654.56 83.52 658.02 78.68 C 662.90 71.86 663.70 62.94 662.68 54.84 C 661.60 46.79 656.54 38.36 648.12 36.51 C 640.85 35.06 633.35 34.82 625.96 35.07 Z" />
<path fill="#fe0101" opacity="1.00" d=" M 762.05 25.97 C 770.04 25.96 778.03 25.97 786.02 25.97 C 791.96 25.91 797.96 25.95 803.80 27.19 C 811.03 28.66 816.72 35.57 816.70 42.96 C 817.04 47.75 816.05 53.01 812.44 56.43 C 809.86 59.31 806.25 60.90 802.61 61.95 C 806.64 70.34 810.66 78.73 814.85 87.05 C 817.68 87.02 820.52 87.02 823.36 87.08 C 823.32 90.03 823.32 92.98 823.36 95.93 C 818.23 96.09 813.10 96.05 807.98 95.96 C 802.51 85.16 797.42 74.18 792.01 63.35 C 788.89 63.33 785.78 63.33 782.67 63.34 C 782.67 71.25 782.64 79.15 782.68 87.05 C 785.57 87.01 788.47 87.01 791.37 87.08 C 791.32 90.03 791.32 92.98 791.36 95.93 C 781.59 96.13 771.82 95.97 762.05 96.02 C 761.93 93.00 761.94 89.97 762.07 86.95 C 765.26 87.06 768.45 87.07 771.65 87.00 C 771.67 69.67 771.66 52.33 771.65 35.00 C 768.45 34.93 765.26 34.93 762.07 35.04 C 761.94 32.02 761.93 28.99 762.05 25.97 M 782.68 34.97 C 782.65 41.42 782.66 47.88 782.67 54.34 C 788.62 54.08 794.78 55.15 800.54 53.22 C 807.60 50.27 807.41 38.10 799.90 35.81 C 794.22 34.80 788.42 34.93 782.68 34.97 Z" />
<path fill="#fe0101" opacity="1.00" d=" M 231.81 736.86 C 242.34 734.13 254.21 735.82 263.04 742.40 C 263.04 740.48 263.04 738.58 263.04 736.68 C 265.70 736.65 268.35 736.65 271.01 736.67 C 270.95 743.67 271.04 750.67 270.94 757.68 C 268.32 757.66 265.70 757.67 263.08 757.67 C 258.02 745.60 241.49 740.39 230.51 747.55 C 217.18 756.31 216.29 778.26 228.55 788.32 C 234.29 793.27 242.81 794.81 249.85 791.88 C 257.29 789.19 262.24 782.25 264.35 774.86 C 267.24 776.20 269.99 777.81 272.75 779.39 C 270.79 786.63 266.28 793.20 259.76 797.04 C 250.37 802.77 238.25 803.60 228.09 799.48 C 219.41 795.90 212.99 787.88 210.55 778.91 C 208.66 771.50 208.92 763.55 211.24 756.27 C 214.24 746.87 222.30 739.39 231.81 736.86 Z" />
<path fill="#fe0101" opacity="1.00" d=" M 424.40 736.49 C 427.58 733.93 432.59 737.15 432.39 740.96 C 432.41 744.75 427.29 747.71 424.24 745.04 C 421.22 743.12 421.24 738.25 424.40 736.49 Z" />
<path fill="#fe0101" opacity="1.00" d=" M 767.08 736.65 C 772.60 736.67 778.12 736.66 783.64 736.66 C 783.67 755.45 783.62 774.24 783.66 793.03 C 785.99 793.03 788.33 793.04 790.67 793.05 C 790.66 795.70 790.66 798.35 790.66 801.00 C 782.79 801.02 774.93 801.06 767.07 801.04 C 766.93 798.37 766.92 795.71 767.00 793.05 C 769.68 792.96 772.35 792.93 775.04 792.93 C 775.05 776.85 775.00 760.76 775.04 744.68 C 772.36 744.66 769.68 744.66 767.01 744.66 C 766.95 741.98 767.00 739.31 767.08 736.65 Z" />
<path fill="#fe0101" opacity="1.00" d=" M 473.66 736.67 C 479.45 736.66 485.25 736.64 491.04 736.68 C 491.05 755.44 491.05 774.20 491.04 792.96 C 493.70 792.93 496.37 792.97 499.04 793.08 C 499.07 795.73 499.03 798.39 498.93 801.05 C 493.39 800.91 487.85 801.15 482.33 800.95 C 482.33 798.93 482.33 796.90 482.37 794.91 C 477.65 799.83 470.76 802.87 463.89 801.87 C 456.04 801.03 448.52 795.70 446.05 788.06 C 444.26 782.60 444.13 776.58 445.73 771.06 C 448.70 760.22 461.17 752.79 472.09 756.05 C 476.01 757.10 479.35 759.55 482.32 762.24 C 482.36 756.38 482.33 750.53 482.33 744.67 C 479.44 744.66 476.55 744.66 473.66 744.66 C 473.65 741.99 473.65 739.33 473.66 736.67 M 462.35 764.54 C 451.72 769.49 450.82 787.32 461.44 792.75 C 467.63 796.22 476.05 793.84 479.82 787.94 C 482.54 783.52 483.03 777.93 481.62 772.99 C 479.46 765.20 469.52 761.09 462.35 764.54 Z" />
<path fill="#fe0101" opacity="1.00" d=" M 606.66 744.66 C 606.65 741.99 606.66 739.32 606.67 736.67 C 612.45 736.66 618.24 736.65 624.02 736.67 C 624.03 755.46 623.98 774.26 624.05 793.05 C 626.67 793.04 629.30 792.99 631.93 792.95 C 632.02 795.60 632.05 798.26 632.03 800.92 C 626.46 801.03 620.89 801.13 615.32 800.95 C 615.32 798.94 615.32 796.92 615.36 794.93 C 610.63 799.84 603.72 802.88 596.85 801.86 C 589.02 801.02 581.54 795.70 579.06 788.09 C 577.34 782.90 577.16 777.20 578.50 771.91 C 580.64 762.68 589.58 755.58 599.01 755.31 C 605.21 755.00 611.11 758.03 615.35 762.39 C 615.31 756.48 615.35 750.58 615.33 744.67 C 612.43 744.66 609.55 744.66 606.66 744.66 M 595.35 764.53 C 584.97 769.39 583.82 786.59 593.84 792.41 C 598.62 795.33 605.15 794.93 609.52 791.41 C 614.92 787.56 616.27 780.03 614.86 773.89 C 613.22 765.59 602.82 760.93 595.35 764.53 Z" />
<path fill="#fe0101" opacity="1.00" d=" M 712.67 736.67 C 721.77 736.68 730.87 736.62 739.98 736.69 C 745.25 737.14 751.06 737.13 755.49 740.45 C 764.75 747.83 765.11 763.53 756.56 771.58 C 749.18 777.46 739.13 776.14 730.33 776.34 C 730.32 781.88 730.33 787.41 730.33 792.95 C 733.10 792.93 735.89 792.96 738.67 793.05 C 738.66 795.67 738.66 798.31 738.68 800.95 C 730.01 801.06 721.33 801.08 712.67 800.94 C 712.66 798.32 712.65 795.71 712.63 793.10 C 715.30 792.96 717.98 792.92 720.67 792.95 C 720.65 776.86 720.67 760.76 720.65 744.67 C 717.98 744.66 715.32 744.66 712.66 744.66 C 712.65 741.99 712.65 739.33 712.67 736.67 M 730.34 744.67 C 730.31 752.66 730.33 760.66 730.33 768.66 C 736.78 768.50 744.12 769.57 749.63 765.45 C 754.32 760.16 753.89 750.22 747.74 746.19 C 742.27 743.85 736.12 744.91 730.34 744.67 Z" />
<path fill="#fe0101" opacity="1.00" d=" M 299.52 755.72 C 306.90 754.31 315.00 756.33 320.46 761.59 C 330.10 770.04 330.17 787.02 320.64 795.57 C 315.09 801.05 306.69 803.11 299.13 801.54 C 291.22 800.15 284.33 794.10 281.81 786.50 C 279.77 779.82 280.29 772.19 283.98 766.17 C 287.47 760.79 293.15 756.78 299.52 755.72 M 299.45 764.71 C 290.58 767.48 287.37 779.32 292.18 786.83 C 295.87 793.03 304.65 795.17 310.92 791.74 C 316.91 788.68 319.55 781.21 317.93 774.87 C 316.41 766.84 307.03 761.90 299.45 764.71 Z" />
<path fill="#fe0101" opacity="1.00" d=" M 350.29 762.01 C 355.53 757.62 362.50 754.04 369.50 755.76 C 372.87 756.54 375.11 759.31 376.79 762.15 C 381.19 758.83 386.18 755.85 391.80 755.35 C 395.26 755.12 399.12 755.82 401.63 758.42 C 404.55 761.06 404.84 765.30 404.96 768.99 C 404.95 776.96 404.94 784.94 404.95 792.93 C 407.52 793.02 410.09 793.06 412.67 793.06 C 412.66 795.69 412.66 798.33 412.66 800.98 C 407.22 801.08 401.78 801.09 396.34 800.96 C 396.29 790.30 396.45 779.64 396.26 768.99 C 396.34 766.34 394.60 763.64 391.83 763.38 C 386.51 762.92 381.73 765.97 377.66 769.03 C 377.65 777.00 377.66 784.98 377.65 792.95 C 380.21 793.03 382.77 793.05 385.34 793.05 C 385.34 795.71 385.34 798.38 385.33 801.05 C 379.91 800.98 374.49 801.03 369.07 801.04 C 368.95 790.64 369.10 780.24 368.93 769.84 C 368.91 767.20 367.77 763.95 364.85 763.41 C 359.40 762.83 354.57 766.13 350.33 769.12 C 350.36 777.08 350.32 785.05 350.35 793.02 C 353.02 793.00 355.69 793.01 358.37 793.09 C 358.33 795.69 358.33 798.29 358.37 800.91 C 350.13 801.10 341.87 801.11 333.63 800.90 C 333.67 798.29 333.66 795.69 333.63 793.09 C 336.30 793.01 338.97 793.00 341.65 793.04 C 341.69 783.47 341.66 773.91 341.67 764.34 C 339.23 764.34 336.78 764.33 334.35 764.34 C 334.34 761.67 334.33 759.00 334.34 756.34 C 339.68 756.34 345.01 756.33 350.35 756.35 C 350.33 758.22 350.32 760.11 350.29 762.01 Z" />
<path fill="#fe0101" opacity="1.00" d=" M 504.93 765.68 C 509.36 757.14 519.87 754.07 528.86 755.63 C 534.61 756.18 540.71 759.91 541.33 766.12 C 542.07 775.06 541.44 784.07 541.67 793.05 C 544.23 793.00 546.80 793.01 549.36 793.08 C 549.34 795.73 549.33 798.40 549.29 801.06 C 544.07 800.91 538.84 801.18 533.63 800.89 C 533.64 799.12 533.67 797.36 533.71 795.62 C 530.53 798.66 526.62 801.20 522.18 801.82 C 515.87 802.96 508.94 799.89 505.79 794.28 C 504.03 790.57 503.72 786.07 505.49 782.31 C 507.56 777.38 512.70 774.33 517.83 773.51 C 523.12 772.63 528.41 774.34 532.95 776.98 C 532.73 773.11 534.02 768.19 530.58 765.38 C 525.57 761.45 516.81 762.20 513.42 767.94 C 510.57 767.27 507.72 766.54 504.93 765.68 M 515.73 781.70 C 511.07 784.71 511.91 792.57 517.02 794.65 C 522.75 796.88 528.71 793.67 533.01 789.99 C 533.01 788.02 532.97 786.07 532.88 784.13 C 528.00 780.89 521.13 778.00 515.73 781.70 Z" />
<path fill="#fe0101" opacity="1.00" d=" M 649.53 757.53 C 657.73 753.42 668.13 755.21 675.02 761.09 C 681.02 765.63 683.08 773.43 683.48 780.61 C 670.83 780.76 658.19 780.60 645.55 780.69 C 646.37 785.77 649.29 790.66 654.08 792.88 C 661.48 796.31 670.89 793.70 675.60 787.07 C 678.20 788.14 680.78 789.27 683.33 790.46 C 675.02 803.48 654.76 805.89 643.31 795.73 C 637.32 790.77 635.13 782.43 636.24 774.94 C 637.19 767.31 642.63 760.70 649.53 757.53 M 651.74 764.75 C 648.45 766.86 646.68 770.61 645.89 774.32 C 655.41 774.36 664.94 774.36 674.46 774.33 C 673.37 770.86 671.55 767.48 668.57 765.30 C 663.86 761.55 656.66 761.23 651.74 764.75 Z" />
<path fill="#fe0101" opacity="1.00" d=" M 797.28 765.81 C 800.23 759.93 806.40 756.18 812.86 755.53 C 818.65 754.93 825.11 755.41 829.89 759.09 C 833.40 761.96 834.05 766.71 834.04 770.97 C 833.98 778.29 834.09 785.61 833.97 792.93 C 836.52 792.94 839.08 792.96 841.65 793.03 C 841.65 795.65 841.65 798.29 841.66 800.93 C 836.46 801.12 831.26 800.95 826.06 801.05 C 826.03 799.23 826.02 797.42 826.03 795.62 C 823.00 798.49 819.38 800.97 815.20 801.69 C 808.84 803.12 801.71 800.24 798.32 794.64 C 796.33 790.82 795.98 786.05 797.90 782.14 C 800.76 775.81 808.31 772.66 814.97 773.40 C 818.69 773.63 822.08 775.29 825.35 776.96 C 825.11 773.06 826.34 768.01 822.77 765.26 C 817.68 761.40 809.06 762.30 805.68 768.00 C 802.89 767.21 800.08 766.50 797.28 765.81 M 808.44 781.45 C 803.68 784.16 803.93 791.91 808.84 794.39 C 814.59 797.15 820.93 793.75 825.35 790.00 C 825.32 788.06 825.31 786.12 825.28 784.20 C 820.50 781.00 813.89 778.11 808.44 781.45 Z" />
<path fill="#fe0101" opacity="1.00" d=" M 896.93 765.67 C 900.09 759.81 906.30 756.04 912.88 755.49 C 918.62 754.96 925.03 755.48 929.70 759.21 C 933.64 762.61 933.78 768.17 933.69 772.97 C 933.66 779.65 933.66 786.34 933.68 793.03 C 936.23 793.03 938.79 793.03 941.35 793.07 C 941.33 795.68 941.33 798.30 941.36 800.93 C 936.12 801.10 930.87 801.12 925.63 800.91 C 925.64 799.14 925.66 797.37 925.70 795.62 C 922.53 798.67 918.62 801.19 914.20 801.81 C 908.15 802.92 901.59 800.15 898.21 795.01 C 894.35 788.68 896.59 779.50 903.19 775.96 C 909.84 771.65 918.55 773.05 925.04 776.98 C 924.82 773.09 925.99 768.15 922.54 765.34 C 917.51 761.42 908.81 762.22 905.42 767.93 C 902.56 767.27 899.71 766.54 896.93 765.67 M 907.72 781.71 C 903.06 784.71 903.91 792.58 909.03 794.66 C 914.66 796.79 920.77 793.84 924.87 789.96 C 925.23 788.02 924.96 786.05 924.87 784.12 C 919.99 780.89 913.13 778.00 907.72 781.71 Z" />
<path fill="#fe0101" opacity="1.00" d=" M 416.02 756.34 C 421.23 756.34 426.44 756.33 431.65 756.34 C 431.64 768.54 431.65 780.74 431.65 792.94 C 433.99 792.94 436.33 792.98 438.68 793.06 C 438.66 795.68 438.66 798.32 438.67 800.96 C 431.10 801.08 423.53 801.06 415.97 800.94 C 415.96 798.28 415.98 795.62 416.06 792.97 C 418.39 792.96 420.71 792.95 423.04 792.93 C 422.92 783.41 423.09 773.88 423.04 764.36 C 420.73 764.33 418.43 764.34 416.13 764.40 C 415.95 761.71 415.93 759.02 416.02 756.34 Z" />
<path fill="#fe0101" opacity="1.00" d=" M 841.33 756.34 C 848.77 756.33 856.21 756.33 863.65 756.34 C 863.64 759.00 863.64 761.67 863.64 764.34 C 861.82 764.34 860.00 764.33 858.21 764.35 C 861.43 772.56 864.85 780.69 867.94 788.95 C 870.99 780.71 874.33 772.57 877.44 764.35 C 875.51 764.34 873.58 764.33 871.67 764.33 C 871.65 761.66 871.65 759.00 871.66 756.35 C 878.88 756.33 886.11 756.33 893.34 756.35 C 893.33 759.00 893.33 761.66 893.33 764.33 C 891.08 764.32 888.84 764.34 886.60 764.39 C 879.21 783.25 871.78 802.09 864.38 820.94 C 859.36 820.96 854.34 820.95 849.33 820.94 C 849.33 818.30 849.33 815.66 849.33 813.03 C 852.23 812.98 855.16 813.16 858.07 812.92 C 860.28 808.81 861.66 804.25 863.63 800.00 C 858.71 788.12 853.70 776.28 848.89 764.35 C 846.37 764.33 843.85 764.33 841.35 764.34 C 841.33 761.67 841.32 759.00 841.33 756.34 Z" />
</g>
</svg>
